<?xml version="1.0" encoding="UTF-8" standalone="no"?>
<!-- Created with Inkscape (http://www.inkscape.org/) -->

<svg
   xmlns:dc="http://purl.org/dc/elements/1.1/"
   xmlns:cc="http://creativecommons.org/ns#"
   xmlns:rdf="http://www.w3.org/1999/02/22-rdf-syntax-ns#"
   xmlns:svg="http://www.w3.org/2000/svg"
   xmlns="http://www.w3.org/2000/svg"
   xmlns:sodipodi="http://sodipodi.sourceforge.net/DTD/sodipodi-0.dtd"
   xmlns:inkscape="http://www.inkscape.org/namespaces/inkscape"
   width="140"
   height="165"
   id="svg2"
   sodipodi:version="0.32"
   inkscape:version="0.92.4 (5da689c313, 2019-01-14)"
   version="1.0"
   inkscape:output_extension="org.inkscape.output.svg.inkscape"
   sodipodi:docname="Lambi_logo_90s.svg">
  <metadata
     id="metadata3739">
    <rdf:RDF>
      <cc:Work
         rdf:about="">
        <dc:format>image/svg+xml</dc:format>
        <dc:type
           rdf:resource="http://purl.org/dc/dcmitype/StillImage" />
      </cc:Work>
    </rdf:RDF>
  </metadata>
  <defs
     id="defs3737" />
  <sodipodi:namedview
     pagecolor="#ffffff"
     bordercolor="#666666"
     borderopacity="1"
     objecttolerance="10"
     gridtolerance="10"
     guidetolerance="10"
     inkscape:pageopacity="0"
     inkscape:pageshadow="2"
     inkscape:window-width="1838"
     inkscape:window-height="1051"
     id="namedview3735"
     showgrid="false"
     inkscape:zoom="1"
     inkscape:cx="204.5"
     inkscape:cy="82.5"
     inkscape:window-x="-9"
     inkscape:window-y="-9"
     inkscape:window-maximized="1"
     inkscape:current-layer="layer1" />
  <g
     inkscape:label="Layer 1"
     inkscape:groupmode="layer"
     id="layer1"
     transform="translate(-165.13146,-562.21523)">
    <g
       id="g6239"
       transform="matrix(9.5100102,0,0,9.5100102,-1542.278,-7445.1457)">
      <path
         style="fill:#1b448e;fill-rule:nonzero;stroke:none"
         d="m 185.85321,847.28612 c -0.664,-0.175 -1.165,-0.674 -1.467,-1.279 -0.121,-0.244 -0.302,-0.619 -0.209,-0.898 0.076,-0.228 0.334,-0.164 0.514,-0.171 0.456,-0.02 0.813,-0.144 1.162,-0.44 0.459,-0.388 0.665,-1.004 1.125,-1.394 0.68,-0.577 1.49,-0.864 2.381,-0.782 0.12,0.011 0.284,0.018 0.4,0.057 0.365,0.122 0.716,0.343 1.01,0.592 0.289,0.245 0.52,0.553 0.762,0.84 0.178,0.211 0.307,0.449 0.534,0.611 0.346,0.248 0.697,0.416 1.124,0.477 0.204,0.03 0.625,-0.039 0.762,0.153 0.138,0.194 0.008,0.511 -0.057,0.707 -0.189,0.567 -0.572,1.138 -1.143,1.374 -0.155,0.064 -0.351,0.139 -0.515,0.172 -0.216,0.043 -0.196,-0.045 -0.324,0.134 -0.129,0.182 -0.19,0.419 -0.305,0.611 -0.185,0.309 -0.448,0.644 -0.724,0.878 -0.25,0.212 -0.531,0.408 -0.838,0.535 -1.025,0.422 -2.129,-0.102 -2.801,-0.898 -0.323,-0.382 -0.531,-0.837 -0.819,-1.241 -0.195,0 -0.381,0.012 -0.572,-0.038"
         id="path2258"
         inkscape:connector-curvature="0" />
      <path
         style="fill:#1b448e;fill-rule:nonzero;stroke:none"
         d="m 180.50021,851.69712 c -0.6,-0.055 -0.869,-0.687 -0.763,-1.222 0.141,-0.703 0.744,-1.287 1.334,-1.643 1.787,-1.074 4.031,-0.513 5.83,0.23 0.59,0.243 1.167,0.542 1.772,0.744 0.387,0.129 0.794,0.102 1.182,0 0.194,-0.051 0.501,-0.246 0.704,-0.21 0.268,0.048 0.158,0.502 0.134,0.669 -0.028,0.192 -0.087,0.38 -0.115,0.572 -0.08,0.563 -0.1,1.151 -0.076,1.719 0.024,0.542 0.071,1.095 0.21,1.623 0.246,0.936 0.649,1.831 0.895,2.768 0.116,0.441 0.221,0.864 0.286,1.318 0.023,0.162 0.075,0.232 0.019,0.401 -0.053,0.16 -0.25,0.256 -0.4,0.286 -0.337,0.068 -0.682,0.024 -1.01,0.134 -0.038,0.063 -0.066,0.134 -0.114,0.191 -0.119,0.137 -0.331,0.158 -0.495,0.19 -0.268,0.054 -0.509,0.084 -0.782,0.096 -0.334,0.014 -0.714,0.081 -1.028,-0.076 -0.561,-0.282 -0.565,-0.821 -0.705,-1.356 -0.224,-0.852 -0.367,-1.726 -0.591,-2.578 -0.048,-0.183 -0.085,-0.37 -0.133,-0.553 -0.048,-0.181 -0.04,-0.377 -0.153,-0.535 -0.321,-0.451 -1.046,-0.473 -1.467,-0.172 -0.383,0.274 -0.744,0.752 -0.838,1.222 l -0.038,0.42 c -0.046,0.454 0.011,0.96 0.076,1.413 0.049,0.345 0.127,0.623 0.057,0.974 -0.163,0.187 -0.345,0.35 -0.61,0.363 -0.209,0.01 -0.403,-0.086 -0.609,0 -0.005,10e-4 -0.281,0.169 -0.286,0.171 -0.29,0.12 -0.581,0.22 -0.896,0.249 -0.216,0.019 -0.43,0.047 -0.647,0.038 -0.1,-0.005 -0.302,-0.025 -0.4,-0.057 -0.807,-0.27 -0.591,-1.228 -0.591,-1.891 0,-0.849 -0.027,-1.692 0.19,-2.52 0.148,-0.561 0.507,-1.037 0.724,-1.566 0.181,-0.44 0.294,-1.129 0.077,-1.565 -0.246,0.092 -0.476,0.177 -0.743,0.153"
         id="path2260"
         inkscape:connector-curvature="0" />
      <path
         style="fill:#ffffff;fill-rule:nonzero;stroke:#1b448e;stroke-width:0.199;stroke-linecap:butt;stroke-linejoin:miter;stroke-miterlimit:4"
         d="m 184.78621,845.45312 0.115,0.344 c 0.252,0.506 0.776,0.853 1.314,0.973 0.196,0.044 0.412,0.019 0.61,0.019 0.432,0.866 0.916,1.906 1.943,2.177 0.204,0.054 0.419,0.067 0.629,0.057 0.194,-0.008 0.373,-0.059 0.553,-0.133 0.202,-0.084 0.404,-0.202 0.571,-0.344 0.277,-0.235 0.548,-0.58 0.686,-0.916 0.066,-0.161 0.144,-0.317 0.21,-0.478 0.022,-0.054 0.08,-0.279 0.133,-0.324 0.141,-0.12 0.425,-0.063 0.591,-0.096 0.486,-0.097 0.94,-0.452 1.162,-0.897 0.059,-0.118 0.093,-0.349 0.114,-0.458 -0.592,-0.054 -1.242,-0.173 -1.714,-0.573 -0.728,-0.617 -1.171,-1.724 -2.191,-1.929 -0.203,-0.04 -0.443,-0.047 -0.648,-0.038 -0.815,0.036 -1.512,0.583 -2.02,1.184 -0.422,0.5 -0.799,1.058 -1.429,1.317 -0.206,0.085 -0.409,0.099 -0.629,0.115 z"
         stroke-miterlimit="4"
         id="path2262"
         inkscape:connector-curvature="0" />
      <path
         style="fill:#ffffff;fill-rule:nonzero;stroke:#1b448e;stroke-width:0.199;stroke-linecap:butt;stroke-linejoin:miter;stroke-miterlimit:4"
         d="m 190.15921,850.26512 c -0.31,0.103 -0.661,0.182 -0.99,0.152 -0.643,-0.058 -1.282,-0.407 -1.868,-0.649 -1.188,-0.49 -2.451,-0.993 -3.753,-1.05 -0.962,-0.042 -2.043,0.215 -2.744,0.916 -0.219,0.221 -0.505,0.494 -0.552,0.821 -0.035,0.245 0.043,0.534 0.305,0.611 0.346,0.102 0.655,-0.204 0.819,-0.477 0.131,-0.219 0.234,-0.539 0.533,-0.496 0.073,0.217 0.029,0.367 0.02,0.592 -0.01,0.209 -0.01,0.42 -0.02,0.63 -0.025,0.594 0.001,1.213 -0.152,1.794 -0.146,0.557 -0.488,1.056 -0.705,1.585 -0.253,0.616 -0.257,1.314 -0.286,1.967 -0.011,0.27 0.006,0.553 -0.019,0.821 -0.027,0.299 -0.131,0.672 0.038,0.954 0.11,0.184 0.296,0.164 0.477,0.172 0.322,0.016 0.704,0.031 1.01,-0.095 0.143,-0.06 0.186,-0.068 0.228,-0.229 0.072,-0.273 0.019,-0.618 0.019,-0.898 0,-0.637 -0.062,-1.275 0.038,-1.909 0.171,-1.085 1.349,-1.873 2.382,-1.967 0.393,-0.035 0.84,0.053 1.219,0.153 0.242,0.064 0.573,0.208 0.724,0.42 0.101,0.141 0.071,0.177 0.115,0.344 0.08,0.304 0.148,0.612 0.228,0.916 0.209,0.797 0.363,1.609 0.572,2.406 0.047,0.179 0.105,0.355 0.152,0.535 0.092,0.351 0.177,0.7 0.591,0.782 0.346,0.07 0.89,0.056 1.181,-0.152 0.045,-0.032 0.105,-0.049 0.134,-0.096 0.064,-0.108 0.03,-0.29 0.019,-0.401 -0.031,-0.31 -0.131,-0.598 -0.21,-0.897 -0.201,-0.764 -0.456,-1.523 -0.705,-2.272 -0.076,-0.229 -0.152,-0.458 -0.229,-0.688 -0.045,-0.136 -0.091,-0.23 -0.076,-0.381 0.02,-0.203 0.223,-0.466 0.438,-0.478 0.092,-0.005 0.271,0.037 0.305,0.153 0.067,0.227 -0.164,0.313 -0.152,0.535 l 0.114,0.343 c 0.076,0.229 0.153,0.459 0.229,0.688 0.133,0.401 0.267,0.802 0.4,1.203 0.156,0.468 0.294,0.936 0.419,1.412 0.044,0.166 0.06,0.334 0.114,0.497 0.225,0.075 0.74,0.18 0.877,-0.115 0.02,-0.044 0.025,-0.325 0.019,-0.362 -0.038,-0.241 -0.129,-0.49 -0.191,-0.726 -0.138,-0.528 -0.267,-1.077 -0.476,-1.585 -0.182,-0.442 -0.355,-0.892 -0.476,-1.355 -0.264,-1.006 -0.303,-2.082 -0.21,-3.113 0.031,-0.341 0.028,-0.674 0.095,-1.011 z"
         stroke-miterlimit="4"
         id="path2264"
         inkscape:connector-curvature="0" />
      <path
         style="fill:#ffffff;fill-rule:nonzero;stroke:#1b448e;stroke-width:0.199;stroke-linecap:butt;stroke-linejoin:miter;stroke-miterlimit:4"
         d="m 183.14821,858.24512 c 0.151,0 0.505,0.068 0.629,-0.057 0.091,-0.091 0.048,-0.24 0.038,-0.343 -0.034,-0.34 -0.103,-0.671 -0.134,-1.012 -0.046,-0.516 -0.125,-1.151 0.077,-1.642 0.131,-0.319 0.356,-0.584 0.495,-0.898 -0.156,0.052 -0.341,0.113 -0.476,0.21 -0.83,0.594 -0.706,1.688 -0.667,2.578 0.017,0.388 0.014,0.776 0.038,1.164 z"
         stroke-miterlimit="4"
         id="path2266"
         inkscape:connector-curvature="0" />
    </g>
  </g>
</svg>
