<?xml version="1.0" encoding="UTF-8" standalone="no"?>
<!-- Created with Inkscape (http://www.inkscape.org/) -->
<svg
   xmlns:dc="http://purl.org/dc/elements/1.1/"
   xmlns:cc="http://web.resource.org/cc/"
   xmlns:rdf="http://www.w3.org/1999/02/22-rdf-syntax-ns#"
   xmlns:svg="http://www.w3.org/2000/svg"
   xmlns="http://www.w3.org/2000/svg"
   xmlns:sodipodi="http://sodipodi.sourceforge.net/DTD/sodipodi-0.dtd"
   xmlns:inkscape="http://www.inkscape.org/namespaces/inkscape"
   width="364"
   height="103"
   id="svg2"
   sodipodi:version="0.32"
   inkscape:version="0.45.1"
   version="1.0"
   inkscape:output_extension="org.inkscape.output.svg.inkscape">
  <g
     inkscape:label="Layer 1"
     inkscape:groupmode="layer"
     id="layer1"
     transform="translate(-251.19565,-658.71246)">
    <g
       id="g4238"
       transform="matrix(8.3622413,0,0,8.3622413,-1202.7138,-6343.0273)">
      <path
         style="fill:#2056ae;fill-rule:nonzero;stroke:none"
         d="M 216.749,847.1752 L 216.661,847.0952 L 216.633,847.0192 L 216.644,843.0422 C 216.644,842.2912 216.338,841.8652 216.077,841.6362 C 215.915,841.4942 215.72,841.3862 215.507,841.3152 C 215.686,841.1852 215.842,841.0352 215.972,840.8622 C 216.267,840.4622 216.392,839.9832 216.321,839.5132 C 216.253,839.0422 215.995,838.6202 215.595,838.3252 C 215.107,837.9622 214.45,837.8202 213.744,837.9252 C 213.038,838.0272 212.451,838.3562 212.089,838.8442 C 211.845,839.1702 211.717,839.5492 211.717,839.9352 L 211.737,840.1932 C 211.808,840.6632 212.066,841.0862 212.463,841.3812 L 212.851,841.6072 C 212.44,841.7292 212.001,841.9082 211.899,842.3932 C 211.19,841.6192 210.175,841.1482 209.01,841.1482 C 208.537,841.1482 208.086,841.2252 207.669,841.3522 L 207.669,838.6712 C 207.669,837.9932 207.125,837.3042 206.085,837.3042 C 205.464,837.3042 204.438,837.5452 203.964,837.7132 L 203.536,837.8802 L 203.111,838.1122 C 202.848,838.2992 202.652,838.5632 202.652,838.9492 C 202.652,839.6122 203.131,839.8072 203.313,839.8782 L 203.406,839.9212 C 203.406,839.9212 203.457,840.0062 203.457,840.2722 L 203.457,842.5292 C 202.95,841.6362 202,841.1482 200.685,841.1482 C 199.749,841.1482 198.933,841.4372 198.352,841.9592 C 197.83,841.4492 197.09,841.1482 196.277,841.1482 C 195.565,841.1482 194.894,841.3472 194.338,841.7042 C 194.162,841.4002 193.873,841.1482 193.369,841.1482 C 192.731,841.1482 191.529,841.6332 191.291,841.7292 L 191.197,841.7632 C 190.911,841.8712 190.409,842.0612 190.143,842.4322 C 189.471,841.5792 188.266,841.1482 186.529,841.1482 C 183.212,841.1482 182.515,842.2082 182.515,843.0982 C 182.515,843.6112 182.804,844.1222 183.425,844.3632 C 182.912,844.6322 182.535,844.9812 182.285,845.4172 C 181.911,845.4232 181.639,845.5562 181.429,845.7372 L 181.157,846.0382 L 180.956,846.3412 C 180.684,846.7752 180.502,847.0612 179.83,847.0612 L 179.513,847.0582 L 179.21,847.0362 L 179.195,846.7242 L 179.19,839.8102 L 179.19,839.7962 L 179.187,839.7222 C 179.187,839.5182 179.238,839.4962 179.297,839.4702 L 179.309,839.4642 L 179.329,839.4562 C 179.734,839.3142 179.938,839.0222 179.938,838.5942 L 179.904,838.2712 C 179.765,837.5542 178.977,837.2482 177.563,837.3642 L 177.54,837.3642 C 176.913,837.4122 174.824,837.6222 174.195,838.3112 C 173.974,838.5492 173.866,838.7932 173.866,839.0392 L 173.883,839.2122 C 173.931,839.4502 174.067,839.6202 174.226,839.7452 L 174.467,839.9012 L 174.697,840.0062 L 174.708,840.0092 L 174.7,847.1462 L 174.694,847.2202 L 174.603,847.2772 C 174.391,847.3962 173.951,847.6422 173.951,848.3402 C 173.951,848.8582 174.206,849.4762 175.408,849.4762 L 181.554,849.4762 C 182.183,849.4762 182.591,849.3692 182.886,848.8612 C 183.447,849.3492 184.21,849.6212 185.1,849.6212 C 185.885,849.6212 186.531,849.4482 187.022,849.1192 C 187.277,849.4002 187.645,849.4762 188.124,849.4762 L 190.228,849.4762 C 190.477,849.4762 190.684,849.4372 190.86,849.3632 C 191.061,849.4342 191.291,849.4762 191.56,849.4762 L 193.904,849.4762 C 194.409,849.4762 194.76,849.3402 194.993,849.1502 C 195.225,849.3402 195.574,849.4762 196.081,849.4762 L 198.426,849.4762 C 198.93,849.4762 199.279,849.3402 199.511,849.1502 C 199.747,849.3402 200.095,849.4762 200.6,849.4762 L 205.668,849.4762 C 206.198,849.5732 206.87,849.6212 207.78,849.6212 C 209.177,849.6212 210.578,849.2182 211.57,848.3652 L 211.601,848.5692 C 211.726,849.0632 212.06,849.2892 212.366,849.3912 C 212.675,849.4932 212.962,849.4742 212.962,849.4742 L 214.708,849.4762 L 215.992,849.4742 C 216.397,849.4742 216.678,849.4082 216.862,849.2782 C 217.279,848.9832 217.395,848.6862 217.395,848.2602 C 217.395,847.7332 217.007,847.3962 216.749,847.1752 z M 185.834,843.7052 C 186.044,843.4612 186.103,843.4222 186.203,843.4162 C 186.387,843.4102 186.41,843.5152 186.441,843.7222 L 185.777,843.7672 L 185.834,843.7052 z M 186.217,847.0612 C 186.197,847.0472 186.146,846.9682 186.146,846.7812 C 186.146,846.3752 186.316,846.1542 186.523,846.0322 C 186.449,846.8432 186.259,847.0612 186.217,847.0612 z M 195.149,844.4962 L 195.149,847.4102 L 195.115,847.4332 L 194.993,847.5232 L 194.868,847.4332 L 194.834,847.4102 L 194.834,847.3932 L 194.834,844.4962 C 194.834,843.9432 194.862,843.7052 194.993,843.7052 C 195.12,843.7052 195.149,843.9432 195.149,844.4962 z M 199.67,847.3932 L 199.67,847.4102 L 199.636,847.4332 L 199.511,847.5232 L 199.389,847.4332 L 199.355,847.4102 L 199.355,844.4962 C 199.355,843.9432 199.384,843.7052 199.511,843.7052 C 199.644,843.7052 199.67,843.9432 199.67,844.4962 L 199.67,847.3932 z M 208.049,847.2652 L 207.916,847.2542 L 207.794,847.1582 C 207.72,847.0502 207.667,846.8342 207.667,846.4042 L 207.667,844.4222 C 207.667,843.5632 207.896,843.5432 208.049,843.5632 C 208.242,843.5862 208.599,844.2662 208.599,845.4142 C 208.599,846.5622 208.242,847.2652 208.049,847.2652 z "
         id="path2204" />
      <!--<path-->
         <!--style="fill:#21569d;fill-rule:nonzero;stroke:none"-->
         <!--d="M 216.749,847.1752 L 216.661,847.0952 L 216.633,847.0192 L 216.644,843.0422 C 216.644,842.2912 216.338,841.8652 216.077,841.6362 C 215.915,841.4942 215.72,841.3862 215.507,841.3152 C 215.686,841.1852 215.842,841.0352 215.972,840.8622 C 216.267,840.4622 216.392,839.9832 216.321,839.5132 C 216.253,839.0422 215.995,838.6202 215.595,838.3252 C 215.107,837.9622 214.45,837.8202 213.744,837.9252 C 213.038,838.0272 212.451,838.3562 212.089,838.8442 C 211.845,839.1702 211.717,839.5492 211.717,839.9352 L 211.737,840.1932 C 211.808,840.6632 212.066,841.0862 212.463,841.3812 L 212.851,841.6072 C 212.44,841.7292 212.001,841.9082 211.899,842.3932 C 211.19,841.6192 210.175,841.1482 209.01,841.1482 C 208.537,841.1482 208.086,841.2252 207.669,841.3522 L 207.669,838.6712 C 207.669,837.9932 207.125,837.3042 206.085,837.3042 C 205.464,837.3042 204.438,837.5452 203.964,837.7132 L 203.536,837.8802 L 203.111,838.1122 C 202.848,838.2992 202.652,838.5632 202.652,838.9492 C 202.652,839.6122 203.131,839.8072 203.313,839.8782 L 203.406,839.9212 C 203.406,839.9212 203.457,840.0062 203.457,840.2722 L 203.457,842.5292 C 202.95,841.6362 202,841.1482 200.685,841.1482 C 199.749,841.1482 198.933,841.4372 198.352,841.9592 C 197.83,841.4492 197.09,841.1482 196.277,841.1482 C 195.565,841.1482 194.894,841.3472 194.338,841.7042 C 194.162,841.4002 193.873,841.1482 193.369,841.1482 C 192.731,841.1482 191.529,841.6332 191.291,841.7292 L 191.197,841.7632 C 190.911,841.8712 190.409,842.0612 190.143,842.4322 C 189.471,841.5792 188.266,841.1482 186.529,841.1482 C 183.212,841.1482 182.515,842.2082 182.515,843.0982 C 182.515,843.6112 182.804,844.1222 183.425,844.3632 C 182.912,844.6322 182.535,844.9812 182.285,845.4172 C 181.911,845.4232 181.639,845.5562 181.429,845.7372 L 181.157,846.0382 L 180.956,846.3412 C 180.684,846.7752 180.502,847.0612 179.83,847.0612 L 179.513,847.0582 L 179.21,847.0362 L 179.195,846.7242 L 179.19,839.8102 L 179.19,839.7962 L 179.187,839.7222 C 179.187,839.5182 179.238,839.4962 179.297,839.4702 L 179.309,839.4642 L 179.329,839.4562 C 179.734,839.3142 179.938,839.0222 179.938,838.5942 L 179.904,838.2712 C 179.765,837.5542 178.977,837.2482 177.563,837.3642 L 177.54,837.3642 C 176.913,837.4122 174.824,837.6222 174.195,838.3112 C 173.974,838.5492 173.866,838.7932 173.866,839.0392 L 173.883,839.2122 C 173.931,839.4502 174.067,839.6202 174.226,839.7452 L 174.467,839.9012 L 174.697,840.0062 L 174.708,840.0092 L 174.7,847.1462 L 174.694,847.2202 L 174.603,847.2772 C 174.391,847.3962 173.951,847.6422 173.951,848.3402 C 173.951,848.8582 174.206,849.4762 175.408,849.4762 L 181.554,849.4762 C 182.183,849.4762 182.591,849.3692 182.886,848.8612 C 183.447,849.3492 184.21,849.6212 185.1,849.6212 C 185.885,849.6212 186.531,849.4482 187.022,849.1192 C 187.277,849.4002 187.645,849.4762 188.124,849.4762 L 190.228,849.4762 C 190.477,849.4762 190.684,849.4372 190.86,849.3632 C 191.061,849.4342 191.291,849.4762 191.56,849.4762 L 193.904,849.4762 C 194.409,849.4762 194.76,849.3402 194.993,849.1502 C 195.225,849.3402 195.574,849.4762 196.081,849.4762 L 198.426,849.4762 C 198.93,849.4762 199.279,849.3402 199.511,849.1502 C 199.747,849.3402 200.095,849.4762 200.6,849.4762 L 205.668,849.4762 C 206.198,849.5732 206.87,849.6212 207.78,849.6212 C 209.177,849.6212 210.578,849.2182 211.57,848.3652 L 211.601,848.5692 C 211.726,849.0632 212.06,849.2892 212.366,849.3912 C 212.675,849.4932 212.962,849.4742 212.962,849.4742 L 214.708,849.4762 L 215.992,849.4742 C 216.397,849.4742 216.678,849.4082 216.862,849.2782 C 217.279,848.9832 217.395,848.6862 217.395,848.2602 C 217.395,847.7332 217.007,847.3962 216.749,847.1752 z M 185.834,843.7052 C 186.044,843.4612 186.103,843.4222 186.203,843.4162 C 186.387,843.4102 186.41,843.5152 186.441,843.7222 L 185.777,843.7672 L 185.834,843.7052 z M 186.217,847.0612 C 186.197,847.0472 186.146,846.9682 186.146,846.7812 C 186.146,846.3752 186.316,846.1542 186.523,846.0322 C 186.449,846.8432 186.259,847.0612 186.217,847.0612 z M 195.149,844.4962 L 195.149,847.4102 L 195.115,847.4332 L 194.993,847.5232 L 194.868,847.4332 L 194.834,847.4102 L 194.834,847.3932 L 194.834,844.4962 C 194.834,843.9432 194.862,843.7052 194.993,843.7052 C 195.12,843.7052 195.149,843.9432 195.149,844.4962 z M 199.67,847.3932 L 199.67,847.4102 L 199.636,847.4332 L 199.511,847.5232 L 199.389,847.4332 L 199.355,847.4102 L 199.355,844.4962 C 199.355,843.9432 199.384,843.7052 199.511,843.7052 C 199.644,843.7052 199.67,843.9432 199.67,844.4962 L 199.67,847.3932 z M 208.049,847.2652 L 207.916,847.2542 L 207.794,847.1582 C 207.72,847.0502 207.667,846.8342 207.667,846.4042 L 207.667,844.4222 C 207.667,843.5632 207.896,843.5432 208.049,843.5632 C 208.242,843.5862 208.599,844.2662 208.599,845.4142 C 208.599,846.5622 208.242,847.2652 208.049,847.2652 z M 216.715,847.2142 C 216.976,847.4352 217.344,847.7592 217.344,848.2602 C 217.344,848.6712 217.233,848.9522 216.834,849.2352 C 216.661,849.3572 216.394,849.4232 215.992,849.4232 L 214.708,849.4252 L 212.959,849.4232 L 212.783,849.4202 L 212.383,849.3432 C 212.089,849.2442 211.771,849.0292 211.649,848.5582 L 211.621,848.3572 L 211.536,848.3262 C 210.555,849.1702 209.169,849.5702 207.78,849.5702 C 206.873,849.5702 206.204,849.5222 205.677,849.4252 L 200.6,849.4252 C 200.104,849.4252 199.769,849.2922 199.542,849.1112 L 199.511,849.0852 L 199.48,849.1112 C 199.256,849.2922 198.922,849.4252 198.426,849.4252 L 196.081,849.4252 C 195.582,849.4252 195.248,849.2922 195.024,849.1112 L 194.993,849.0852 L 194.962,849.1112 C 194.738,849.2922 194.4,849.4252 193.904,849.4252 L 191.56,849.4252 C 191.296,849.4252 191.073,849.3832 190.877,849.3152 L 190.857,849.3092 L 190.84,849.3152 C 190.673,849.3862 190.472,849.4252 190.228,849.4252 L 188.124,849.4252 C 187.648,849.4252 187.3,849.3492 187.059,849.0852 L 187.03,849.0512 L 186.993,849.0772 C 186.514,849.4002 185.877,849.5702 185.1,849.5702 C 184.221,849.5702 183.47,849.3012 182.92,848.8222 L 182.841,848.8362 C 182.56,849.3202 182.177,849.4252 181.554,849.4252 L 175.408,849.4252 C 174.235,849.4252 174.002,848.8302 174.002,848.3402 C 174.002,847.6712 174.419,847.4382 174.629,847.3222 L 174.742,847.2482 L 174.751,847.1492 L 174.759,839.9692 L 174.714,839.9582 L 174.493,839.8562 L 174.257,839.7052 C 174.107,839.5862 173.98,839.4252 173.934,839.2012 L 173.917,839.0392 C 173.917,838.8102 174.016,838.5772 174.232,838.3452 C 174.844,837.6762 176.908,837.4632 177.543,837.4152 L 177.565,837.4152 C 178.986,837.2992 179.723,837.6112 179.853,838.2802 L 179.887,838.5942 C 179.887,839.0002 179.697,839.2742 179.312,839.4082 L 179.286,839.4192 C 179.195,839.4592 179.136,839.5012 179.136,839.7222 L 179.139,839.7962 L 179.139,839.8102 L 179.144,846.7242 L 179.161,847.0842 L 179.51,847.1092 L 179.83,847.1122 C 180.173,847.1122 180.4,847.0392 180.573,846.9052 C 180.746,846.7722 180.865,846.5822 180.998,846.3702 L 181.197,846.0692 L 181.463,845.7772 C 181.664,845.6012 181.925,845.4742 182.285,845.4682 L 182.316,845.4682 L 182.33,845.4432 C 182.574,845.0152 182.943,844.6742 183.447,844.4082 L 183.444,844.3142 C 182.844,844.0822 182.566,843.5922 182.566,843.0982 C 182.566,842.6702 182.733,842.2002 183.306,841.8312 C 183.881,841.4632 184.873,841.1992 186.529,841.1992 C 188.261,841.1992 189.445,841.6302 190.103,842.4632 L 190.185,842.4612 C 190.44,842.1062 190.925,841.9192 191.214,841.8112 L 191.311,841.7772 C 191.552,841.6782 192.742,841.1992 193.369,841.1992 C 193.85,841.1992 194.125,841.4372 194.293,841.7292 L 194.321,841.7752 L 194.366,841.7462 C 194.913,841.3952 195.574,841.1992 196.277,841.1992 C 197.079,841.1992 197.805,841.4942 198.315,841.9962 L 198.349,842.0302 L 198.386,841.9962 C 198.956,841.4862 199.761,841.1992 200.685,841.1992 C 201.986,841.1992 202.916,841.6812 203.412,842.5542 L 203.508,842.5292 L 203.508,840.2722 L 203.483,839.9862 L 203.449,839.8952 L 203.443,839.8812 L 203.332,839.8302 C 203.154,839.7622 202.703,839.5782 202.703,838.9492 C 202.703,838.5832 202.887,838.3332 203.14,838.1552 L 203.559,837.9252 L 203.982,837.7612 C 204.452,837.5942 205.473,837.3552 206.085,837.3552 C 207.1,837.3552 207.618,838.0242 207.618,838.6712 L 207.618,841.3522 L 207.684,841.4002 C 208.097,841.2762 208.542,841.1992 209.01,841.1992 C 210.161,841.1992 211.162,841.6642 211.862,842.4272 L 211.95,842.4042 C 212.043,841.9502 212.454,841.7772 212.865,841.6562 L 212.877,841.5622 L 212.494,841.3412 C 212.106,841.0522 211.856,840.6412 211.788,840.1842 L 211.768,839.9352 C 211.768,839.5612 211.893,839.1922 212.128,838.8752 C 212.483,838.3992 213.058,838.0752 213.753,837.9762 C 214.447,837.8712 215.09,838.0132 215.564,838.3652 C 215.955,838.6542 216.204,839.0652 216.27,839.5212 C 216.338,839.9772 216.219,840.4422 215.932,840.8312 C 215.805,841.0012 215.652,841.1452 215.476,841.2732 L 215.49,841.3642 C 215.697,841.4322 215.887,841.5372 216.043,841.6752 C 216.295,841.8942 216.593,842.3082 216.593,843.0422 L 216.582,847.0272 L 216.618,847.1242 L 216.715,847.2142 z M 185.794,843.6712 L 185.741,843.7332 L 185.78,843.8182 L 186.444,843.7732 L 186.492,843.7142 C 186.461,843.5152 186.435,843.3562 186.2,843.3652 C 186.075,843.3732 186.001,843.4302 185.794,843.6712 z M 186.188,847.1042 L 186.2,847.1122 L 186.217,847.1122 C 186.279,847.1122 186.347,847.0132 186.407,846.8682 C 186.469,846.7072 186.537,846.4462 186.574,846.0382 L 186.497,845.9872 C 186.273,846.1202 186.095,846.3582 186.095,846.7812 C 186.095,846.9712 186.146,847.0732 186.188,847.1042 z M 195.2,844.4962 L 195.169,843.8842 C 195.146,843.7592 195.103,843.6542 194.993,843.6542 C 194.882,843.6542 194.837,843.7592 194.814,843.8842 L 194.783,844.4962 L 194.783,847.4382 L 194.84,847.4752 L 194.993,847.5862 L 195.143,847.4752 L 195.2,847.4382 L 195.2,844.4962 z M 199.721,847.4382 L 199.721,844.4962 L 199.69,843.8842 C 199.667,843.7592 199.622,843.6542 199.511,843.6542 C 199.401,843.6542 199.358,843.7592 199.336,843.8842 L 199.304,844.4962 L 199.304,847.4382 L 199.361,847.4752 L 199.511,847.5862 L 199.664,847.4752 L 199.721,847.4382 z M 208.046,847.3162 C 208.188,847.3162 208.336,847.0952 208.443,846.7862 C 208.559,846.4632 208.65,845.9932 208.65,845.4142 C 208.65,844.8362 208.559,844.3712 208.443,844.0512 C 208.333,843.7392 208.188,843.5292 208.055,843.5122 C 207.973,843.5012 207.851,843.5012 207.757,843.6342 C 207.672,843.7592 207.616,843.9912 207.616,844.4222 L 207.616,846.4042 C 207.616,846.8342 207.669,847.0642 207.752,847.1862 L 207.896,847.3022 L 208.046,847.3162 z "-->
         <!--id="path2206" />-->
      <path
         style="fill:#ffffff;fill-rule:nonzero;stroke:none"
         d="M 204.132,838.1802 C 203.494,838.4042 203.145,838.5942 203.145,838.9492 C 203.145,839.2772 203.324,839.3512 203.497,839.4192 C 203.721,839.5102 203.95,839.6032 203.95,840.2722 L 203.95,846.2142 C 203.95,847.0752 203.999,847.6112 204.231,848.0362 C 203.641,847.9342 203.383,847.7392 203.383,847.3932 L 203.383,844.3202 C 203.383,842.5682 202.451,841.6442 200.685,841.6442 C 199.653,841.6442 198.803,842.0412 198.329,842.7332 C 197.941,842.0692 197.15,841.6442 196.277,841.6442 C 195.418,841.6442 194.633,841.9702 194.097,842.5402 C 194.026,842.1352 193.904,841.6442 193.369,841.6442 C 192.915,841.6442 191.937,841.9992 191.481,842.1862 L 191.37,842.2282 L 191.078,842.3442 L 190.783,842.4972 C 190.599,842.6142 190.457,842.7672 190.457,842.9682 C 190.457,843.3002 190.616,843.3732 190.766,843.4412 L 190.891,843.5092 L 191.007,843.6202 C 191.075,843.7192 191.121,843.8752 191.121,844.1472 L 191.121,847.3932 C 191.121,847.6742 191.007,847.7532 190.874,847.8412 L 190.783,847.9092 L 190.653,847.8012 L 190.415,847.6142 C 190.355,847.5352 190.319,847.4162 190.319,847.1862 L 190.319,844.6232 C 190.319,842.0672 188.136,841.6442 186.529,841.6442 C 183.62,841.6442 183.011,842.4352 183.011,843.0982 C 183.011,843.6652 183.487,844.0142 184.255,844.0142 C 184.578,844.0142 184.814,843.9322 185.001,843.8102 C 185.188,843.6882 185.33,843.5292 185.463,843.3792 C 185.675,843.1322 185.862,842.9232 186.203,842.9232 C 186.707,842.9232 186.94,843.1132 186.976,844.2072 C 184.488,844.2182 183.011,844.8082 182.577,845.9612 L 182.302,845.9102 C 181.812,845.9102 181.599,846.2482 181.375,846.6052 L 181.146,846.9452 L 180.851,847.2482 C 180.618,847.4302 180.304,847.5542 179.83,847.5542 C 178.813,847.5542 178.699,847.5292 178.699,846.7242 L 178.694,839.8242 C 178.665,839.2092 178.957,839.0792 179.099,839.0172 L 179.164,838.9912 C 179.343,838.9292 179.51,838.8272 179.419,838.3652 C 179.317,837.8292 178.373,837.7922 177.602,837.8572 L 177.577,837.8572 L 177.135,837.9032 L 176.23,838.0332 C 175.556,838.1552 174.827,838.3502 174.558,838.6452 C 174.399,838.8182 174.337,838.9712 174.368,839.1132 C 174.416,839.3372 174.694,839.4622 174.898,839.5522 L 175.02,839.6092 C 175.201,839.7002 175.201,839.9122 175.201,839.9122 L 175.196,847.1462 C 175.196,847.5092 175.034,847.6032 174.844,847.7082 C 174.657,847.8122 174.447,847.9322 174.447,848.3402 C 174.447,848.7902 174.734,848.9802 175.408,848.9802 L 181.554,848.9802 C 182.149,848.9802 182.328,848.8952 182.509,848.5272 L 182.739,847.9122 C 183.181,848.6832 184.031,849.1252 185.1,849.1252 C 185.78,849.1252 186.67,848.9722 187.175,848.2972 C 187.3,848.8812 187.518,848.9802 188.124,848.9802 L 190.228,848.9802 C 190.511,848.9802 190.707,848.9212 190.829,848.8022 C 190.999,848.9182 191.243,848.9802 191.56,848.9802 L 193.904,848.9802 C 194.525,848.9802 194.879,848.7512 194.879,848.3542 C 194.879,848.1952 194.84,848.0902 194.783,848.0142 L 194.59,847.8412 L 194.415,847.6912 C 194.372,847.6252 194.344,847.5352 194.344,847.3932 L 194.344,844.4962 C 194.344,843.3962 194.656,843.2432 194.993,843.2432 C 195.33,843.2432 195.642,843.3962 195.642,844.4962 L 195.642,847.3932 C 195.642,847.5352 195.611,847.6252 195.565,847.6912 L 195.393,847.8412 L 195.194,848.0142 C 195.14,848.0902 195.103,848.1952 195.103,848.3542 C 195.103,848.7512 195.461,848.9802 196.081,848.9802 L 198.426,848.9802 C 199.046,848.9802 199.401,848.7512 199.401,848.3542 C 199.401,848.1952 199.361,848.0902 199.304,848.0142 L 199.112,847.8412 L 198.936,847.6912 C 198.893,847.6252 198.865,847.5352 198.865,847.3932 L 198.865,844.4962 C 198.865,843.3962 199.177,843.2432 199.511,843.2432 C 199.849,843.2432 200.16,843.3962 200.16,844.4962 L 200.16,847.3932 C 200.16,847.5352 200.132,847.6252 200.087,847.6912 L 199.914,847.8412 L 199.715,848.0142 C 199.662,848.0902 199.625,848.1952 199.625,848.3542 C 199.625,848.7512 199.979,848.9802 200.6,848.9802 L 205.708,848.9802 C 206.207,849.0802 206.867,849.1252 207.78,849.1252 C 210.107,849.1252 212.457,847.9142 212.457,845.2102 C 212.457,843.1442 211.006,841.6442 209.01,841.6442 C 208.321,841.6442 207.675,841.8092 207.173,842.1012 L 207.173,838.6712 C 207.173,838.2372 206.836,837.7982 206.085,837.7982 C 205.549,837.7982 204.568,838.0242 204.132,838.1802 z M 214.481,841.7242 C 214.2,841.7602 213.906,841.8112 213.123,842.0412 C 212.63,842.1832 212.369,842.2622 212.369,842.6192 L 212.372,842.6962 C 212.389,842.8602 212.477,843.0392 212.602,843.2572 C 212.848,843.6852 213.035,844.2972 213.064,845.0742 L 213.064,845.1762 C 213.064,846.3812 212.653,847.1412 212.361,847.5292 L 212.145,847.8522 C 212.091,847.9632 212.057,848.0792 212.057,848.2232 L 212.086,848.4642 C 212.23,849.0232 212.973,848.9832 212.973,848.9832 L 216.148,848.9832 C 216.715,848.9832 216.899,848.5182 216.899,848.2602 C 216.899,848.1102 216.834,847.9832 216.743,847.8662 L 216.426,847.5492 L 216.222,847.3622 C 216.17,847.2992 216.139,847.2402 216.136,847.1722 L 216.151,843.0392 C 216.151,842.5882 216.017,842.2402 215.751,842.0102 C 215.456,841.7522 215.017,841.6532 214.481,841.7242 z M 213.815,838.4132 C 212.644,838.5862 212.123,839.4222 212.225,840.1192 C 212.276,840.4592 212.466,840.7682 212.76,840.9842 C 213.14,841.2672 213.67,841.3782 214.243,841.2932 C 214.818,841.2082 215.289,840.9502 215.575,840.5672 C 215.791,840.2752 215.884,839.9242 215.833,839.5862 C 215.731,838.8862 214.986,838.2402 213.815,838.4132 z M 185.653,846.7812 C 185.653,845.9472 186.186,845.4262 187.047,845.4032 C 187.042,846.4012 186.891,847.5542 186.217,847.5542 C 185.874,847.5542 185.653,847.2512 185.653,846.7812 z M 207.17,846.4042 L 207.17,844.4222 C 207.17,843.4732 207.434,843.0672 208.049,843.0672 C 208.735,843.0672 209.092,844.2492 209.092,845.4142 C 209.092,846.5792 208.735,847.7592 208.049,847.7592 C 207.434,847.7592 207.17,847.3532 207.17,846.4042 z "
         id="path2208" />
    </g>
  </g>
</svg>
